<svg width="139" height="82" viewBox="0 0 139 82" fill="none" xmlns="http://www.w3.org/2000/svg">
<path d="M105.483 38.241C107.83 36.5258 108.089 34.0852 108.089 33.0952C108.089 29.7781 105.891 27.1673 102.353 26.2781C100.114 25.6601 91.8601 26.007 89.2676 25.925L89.3084 36.7843C89.3084 36.7843 85.3822 37.0366 82.1909 38.1401L76.8086 25.925H72.1136L63.574 45.3229C64.0026 39.2059 59.5593 37.1185 53.4353 36.551C49.9242 36.0906 48.2912 34.987 48.2912 33.0826C48.298 30.806 50.21 29.6394 52.6596 29.6583C55.0548 29.6583 57.1029 30.2889 59.4505 31.7078C59.5457 31.7582 59.8111 31.9033 59.92 31.96C60.0901 31.7078 62.4444 28.3844 62.5193 28.2331C62.3968 28.1448 62.2539 28.0439 62.1246 27.9493C58.0011 25.0232 49.863 23.9638 45.651 27.5016C43.3443 29.3177 42.4598 32.6853 43.2559 35.5041V35.542C44.12 38.0582 47.0868 40.1707 50.3597 40.8581C53.8776 41.4761 58.355 41.3942 58.3345 44.8184C58.3345 47.0634 56.2728 48.5202 53.0815 48.5202C49.8902 48.5202 47.1004 47.0067 45.3857 45.7454C45.2224 45.613 45.0931 45.5184 44.957 45.4175L41.6568 48.9742C41.7793 49.0814 41.963 49.2391 42.0855 49.3589C46.8622 53.4832 57.0961 54.4543 61.5394 49.8823C61.5258 49.9202 61.519 49.958 61.5054 49.9958C61.3285 50.5634 60.2806 53.1931 55.4631 56.7561C45.7939 63.9704 31.5318 65.0677 20.7672 59.2408C10.0025 55.0345 2.23186 46.1617 0 35.8258C0.979841 56.1885 21.9988 71.21 43.4872 66.9407C51.5233 65.3893 58.7088 61.2335 64.0095 55.4823C65.5336 53.83 67.0578 52.2345 68.4528 50.8976C71.7393 47.795 74.3454 46.0797 77.3938 44.4211C78.1491 44.0365 78.571 43.841 79.231 43.6202L82.7557 52.3291H88.4306L83.9533 42.1698C85.9538 41.5266 87.6073 41.2428 89.2608 41.1167V52.3291H91.6559V52.3354H100.345C103.251 52.3354 105.666 51.5661 107.327 50.1157C108.905 48.7346 109.742 46.8175 109.742 44.5599C109.742 41.8167 108.272 39.6347 105.476 38.2347L105.483 38.241ZM68.6841 45.2599L74.4066 31.67L77.5775 39.5338C74.4611 40.7698 71.331 42.7689 68.6841 45.2599ZM94.4253 30.3267C95.8339 30.3709 99.4062 30.1691 100.624 30.5853C102.162 31.052 102.938 32.124 102.938 33.7825C102.938 35.2708 102.196 36.324 100.787 36.8348C98.8754 36.5194 96.5279 36.469 94.4253 36.5321V30.333V30.3267ZM100.059 47.9211H94.4253V40.7194C99.2905 40.4419 104.68 41.4068 104.591 44.5536C104.591 46.868 102.244 47.9211 100.059 47.9211Z" fill="#EE2C24"/>
<path d="M68.2274 17.5251H68.2342C62.6886 7.87663 51.6109 1.07221 39.8869 0.126279C38.873 0.0442981 37.8455 0.000154563 36.8113 0.000154563C23.4745 -0.0376828 10.9612 6.87394 4.73509 18.0044C1.74113 23.3016 0.312199 29.2673 0.659225 35.2141C2.89108 45.55 10.6618 54.4228 21.4264 58.6291C6.98736 51.295 1.34647 33.5997 9.1784 20.1548C14.8125 9.84416 27.53 3.50641 39.8869 4.79919C43.6497 5.17756 47.3445 6.22439 50.8761 7.93338C52.4955 8.72166 54.0401 9.63606 55.4759 10.664H55.4214C59.2523 13.3946 62.4164 17.0269 64.5258 21.1891H70.0714C69.5339 19.9467 68.9215 18.7044 68.2138 17.5251H68.2274Z" fill="url(#paint0_linear_2010_1477)"/>
<path d="M69.3031 55.9301H71.7323L75.815 67.256H73.0251L72.4127 65.3011H68.5206L67.9082 67.256H65.2L69.3031 55.9301ZM71.7799 63.0624L70.4326 59.0958L69.0173 63.0624H71.7731H71.7799Z" fill="#D8AF7A"/>
<path d="M79.3728 55.9305V64.9737H83.3534V67.2565H76.7939V55.9305H79.3796H79.3728Z" fill="#D8AF7A"/>
<path d="M86.7011 66.9407C86.0275 66.5875 85.5036 66.0767 85.1361 65.4209C84.7687 64.765 84.585 64.002 84.585 63.138V55.9237H87.1843V63.1885C87.1843 63.7939 87.3544 64.2794 87.6878 64.6452C88.0212 65.011 88.4771 65.1938 89.0487 65.1938C89.6203 65.1938 90.0761 65.011 90.4096 64.6452C90.743 64.2794 90.9131 63.7939 90.9131 63.1885V55.9237H93.4988V63.138C93.4988 64.002 93.3151 64.7587 92.9476 65.4209C92.5802 66.0767 92.0631 66.5875 91.3962 66.9407C90.7294 67.2938 89.9469 67.4767 89.0487 67.4767C88.1505 67.4767 87.368 67.3001 86.6943 66.9407H86.7011Z" fill="#D8AF7A"/>
<path d="M105.082 55.9301H108.627V67.256H106.096V62.211L106.184 59.2976L105.225 62.066L103.272 67.256H100.775L98.7332 62.0156L97.7398 59.2471L97.8282 62.1606V67.256H95.3174V55.9301H98.8625L102.02 64.1155L105.089 55.9301H105.082Z" fill="#D8AF7A"/>
<path d="M116.546 62.6903L116.424 59.7768V55.9301H118.955V67.256H116.655L114.192 62.7282L112.885 60.0732L112.987 62.9867V67.256H110.477V55.9301H113.008L115.24 60.0417L116.546 62.6966V62.6903Z" fill="#D8AF7A"/>
<path d="M123.424 55.9305V67.2565H120.839V55.9305H123.424Z" fill="#D8AF7A"/>
<path d="M72.8619 79.5781C72.7802 79.1997 72.7394 78.7898 72.7394 78.3484C72.7394 78.2285 72.753 78.033 72.7734 77.7493V70.4845H74.0663V81.8105H72.8823L68.5002 74.1926C68.126 73.6754 67.8402 73.1268 67.6429 72.5403C67.7245 72.9376 67.7653 73.3727 67.7653 73.852C67.7653 74.079 67.7653 74.2493 67.7449 74.3691V81.8105H66.4385V70.4845H67.7449L72.0181 77.9069C72.3788 78.424 72.6577 78.979 72.8551 79.5718L72.8619 79.5781Z" fill="#D8AF7A"/>
<path d="M82.4963 70.4846V71.6323H77.9781V75.2079H81.9247V76.3241H77.9781V80.6565H82.4963V81.8042H76.6512V70.4783H82.4963V70.4846Z" fill="#D8AF7A"/>
<path d="M83.422 70.4845H90.9613V71.6322H87.8517V81.8042H86.5248V71.6322H83.4152V70.4845H83.422Z" fill="#D8AF7A"/>
<path d="M91.6436 70.4849H93.0589L95.3112 78.3613C95.5425 78.9415 95.6786 79.4901 95.7126 79.9946C95.7603 79.4901 95.9031 78.9478 96.1481 78.3803L98.5229 70.4849H99.6388L101.98 78.2983C102.224 78.8721 102.367 79.4082 102.415 79.919C102.463 79.4145 102.599 78.8658 102.816 78.2857L105.035 70.4912H106.375L103.143 81.8171H101.803L99.0468 72.7236L96.291 81.8171H94.8757L91.6436 70.4912V70.4849Z" fill="#D8AF7A"/>
<path d="M110.451 81.218C109.505 80.6946 108.749 79.9883 108.198 79.0928C107.647 78.1973 107.368 77.2136 107.368 76.1352C107.368 75.0569 107.647 74.0857 108.198 73.1902C108.749 72.2947 109.505 71.5884 110.451 71.0713C111.396 70.5542 112.444 70.2957 113.581 70.2957C114.717 70.2957 115.765 70.5542 116.711 71.0713C117.656 71.5884 118.405 72.2947 118.956 73.1902C119.501 74.0857 119.779 75.0632 119.779 76.1352C119.779 77.2073 119.507 78.1973 118.956 79.0928C118.412 79.9883 117.663 80.6946 116.711 81.218C115.765 81.7414 114.717 82 113.581 82C112.444 82 111.396 81.7414 110.451 81.218ZM109.375 78.5064C109.804 79.2316 110.389 79.7991 111.131 80.2153C111.873 80.6315 112.689 80.8397 113.581 80.8397C114.472 80.8397 115.275 80.6315 116.017 80.2153C116.758 79.7991 117.343 79.2316 117.772 78.5064C118.201 77.7811 118.419 76.9929 118.419 76.1289C118.419 75.265 118.201 74.4767 117.772 73.7704C117.343 73.0578 116.758 72.4965 116.017 72.0803C115.275 71.6641 114.465 71.456 113.581 71.456C112.696 71.456 111.866 71.6641 111.131 72.0803C110.389 72.4965 109.804 73.0578 109.375 73.7704C108.947 74.483 108.729 75.2713 108.729 76.1289C108.729 76.9866 108.947 77.7874 109.375 78.5064Z" fill="#D8AF7A"/>
<path d="M121.909 70.4846H125.121C125.856 70.4846 126.502 70.6107 127.06 70.863C127.618 71.1152 128.047 71.4683 128.353 71.9161C128.659 72.3638 128.809 72.862 128.809 73.4107C128.809 74.0224 128.652 74.5647 128.339 75.0251C128.026 75.4917 127.598 75.8449 127.047 76.0908C127.618 76.3178 128.054 76.6521 128.353 77.0998C128.652 77.5475 128.809 78.0899 128.809 78.7268V81.7979H127.482V78.8403C127.482 78.1403 127.271 77.6169 126.842 77.2638C126.414 76.9106 125.815 76.7403 125.032 76.7403H123.236V81.8042H121.909V70.4783V70.4846ZM123.236 75.6431H125.053C125.788 75.6431 126.373 75.4539 126.815 75.0755C127.257 74.6971 127.475 74.1989 127.475 73.5683C127.475 72.9881 127.257 72.5152 126.815 72.162C126.373 71.8089 125.788 71.626 125.053 71.626H123.222L123.243 75.6368L123.236 75.6431Z" fill="#D8AF7A"/>
<path d="M132.639 76.2106V81.8042H131.312V70.4783H132.639V75.5548L136.81 70.4783H138.361L133.857 75.8827L138.742 81.8042H137.157L132.639 76.2106Z" fill="#D8AF7A"/>
<path d="M105.483 38.241C107.83 36.5258 108.089 34.0852 108.089 33.0952C108.089 29.7781 105.891 27.1673 102.353 26.2781C100.114 25.6601 91.8601 26.007 89.2676 25.925L89.3084 36.7843C89.3084 36.7843 85.3822 37.0366 82.1909 38.1401L76.8086 25.925H72.1136L63.574 45.3229C64.0026 39.2059 59.5593 37.1185 53.4353 36.551C49.9242 36.0906 48.2912 34.987 48.2912 33.0826C48.298 30.806 50.21 29.6394 52.6596 29.6583C55.0548 29.6583 57.1029 30.2889 59.4505 31.7078C59.5457 31.7582 59.8111 31.9033 59.92 31.96C60.0901 31.7078 62.4444 28.3844 62.5193 28.2331C62.3968 28.1448 62.2539 28.0439 62.1246 27.9493C58.0011 25.0232 49.863 23.9638 45.651 27.5016C43.3443 29.3177 42.4598 32.6853 43.2559 35.5041V35.542C44.12 38.0582 47.0868 40.1707 50.3597 40.8581C53.8776 41.4761 58.355 41.3942 58.3345 44.8184C58.3345 47.0634 56.2728 48.5202 53.0815 48.5202C49.8902 48.5202 47.1004 47.0067 45.3857 45.7454C45.2224 45.613 45.0931 45.5184 44.957 45.4175L41.6568 48.9742C41.7793 49.0814 41.963 49.2391 42.0855 49.3589C46.8622 53.4832 57.0961 54.4543 61.5394 49.8823C61.5258 49.9202 61.519 49.958 61.5054 49.9958C61.3285 50.5634 60.2806 53.1931 55.4631 56.7561C45.7939 63.9704 31.5318 65.0677 20.7672 59.2408C10.0025 55.0345 2.23186 46.1617 0 35.8258C0.979841 56.1885 21.9988 71.21 43.4872 66.9407C51.5233 65.3893 58.7088 61.2335 64.0095 55.4823C65.5336 53.83 67.0578 52.2345 68.4528 50.8976C71.7393 47.795 74.3454 46.0797 77.3938 44.4211C78.1491 44.0365 78.571 43.841 79.231 43.6202L82.7557 52.3291H88.4306L83.9533 42.1698C85.9538 41.5266 87.6073 41.2428 89.2608 41.1167V52.3291H91.6559V52.3354H100.345C103.251 52.3354 105.666 51.5661 107.327 50.1157C108.905 48.7346 109.742 46.8175 109.742 44.5599C109.742 41.8167 108.272 39.6347 105.476 38.2347L105.483 38.241ZM68.6841 45.2599L74.4066 31.67L77.5775 39.5338C74.4611 40.7698 71.331 42.7689 68.6841 45.2599ZM94.4253 30.3267C95.8339 30.3709 99.4062 30.1691 100.624 30.5853C102.162 31.052 102.938 32.124 102.938 33.7825C102.938 35.2708 102.196 36.324 100.787 36.8348C98.8754 36.5194 96.5279 36.469 94.4253 36.5321V30.333V30.3267ZM100.059 47.9211H94.4253V40.7194C99.2905 40.4419 104.68 41.4068 104.591 44.5536C104.591 46.868 102.244 47.9211 100.059 47.9211Z" fill="#EE2C24"/>
<path d="M68.2274 17.5251H68.2342C62.6886 7.87663 51.6109 1.07221 39.8869 0.126279C38.873 0.0442981 37.8455 0.000154563 36.8113 0.000154563C23.4745 -0.0376828 10.9612 6.87394 4.73509 18.0044C1.74113 23.3016 0.312199 29.2673 0.659225 35.2141C2.89108 45.55 10.6618 54.4228 21.4264 58.6291C6.98736 51.295 1.34647 33.5997 9.1784 20.1548C14.8125 9.84416 27.53 3.50641 39.8869 4.79919C43.6497 5.17756 47.3445 6.22439 50.8761 7.93338C52.4955 8.72166 54.0401 9.63606 55.4759 10.664H55.4214C59.2523 13.3946 62.4164 17.0269 64.5258 21.1891H70.0714C69.5339 19.9467 68.9215 18.7044 68.2138 17.5251H68.2274Z" fill="url(#paint1_linear_2010_1477)"/>
<defs>
<linearGradient id="paint0_linear_2010_1477" x1="0.60479" y1="29.3115" x2="70.085" y2="29.3115" gradientUnits="userSpaceOnUse">
<stop offset="0.3" stop-color="#D8AF7A"/>
<stop offset="0.35" stop-color="#D8AF7A" stop-opacity="0.97"/>
<stop offset="0.42" stop-color="#D8AF7A" stop-opacity="0.9"/>
<stop offset="0.5" stop-color="#D8AF7A" stop-opacity="0.78"/>
<stop offset="0.59" stop-color="#D8AF7A" stop-opacity="0.61"/>
<stop offset="0.64" stop-color="#D8AF7A" stop-opacity="0.5"/>
<stop offset="0.69" stop-color="#D8AF7A" stop-opacity="0.44"/>
<stop offset="0.79" stop-color="#D8AF7A" stop-opacity="0.29"/>
<stop offset="0.92" stop-color="#D8AF7A" stop-opacity="0.04"/>
<stop offset="0.93" stop-color="#D8AF7A" stop-opacity="0"/>
</linearGradient>
<linearGradient id="paint1_linear_2010_1477" x1="0.60479" y1="29.3115" x2="70.085" y2="29.3115" gradientUnits="userSpaceOnUse">
<stop offset="0.3" stop-color="#D8AF7A"/>
<stop offset="0.35" stop-color="#D8AF7A" stop-opacity="0.97"/>
<stop offset="0.42" stop-color="#D8AF7A" stop-opacity="0.9"/>
<stop offset="0.5" stop-color="#D8AF7A" stop-opacity="0.78"/>
<stop offset="0.59" stop-color="#D8AF7A" stop-opacity="0.61"/>
<stop offset="0.64" stop-color="#D8AF7A" stop-opacity="0.5"/>
<stop offset="0.69" stop-color="#D8AF7A" stop-opacity="0.44"/>
<stop offset="0.79" stop-color="#D8AF7A" stop-opacity="0.29"/>
<stop offset="0.92" stop-color="#D8AF7A" stop-opacity="0.04"/>
<stop offset="0.93" stop-color="#D8AF7A" stop-opacity="0"/>
</linearGradient>
</defs>
</svg>
